# xmcd
#
# Track frame offsets: 
#        150
#        6604
#        11928
#        13902
#        39275
#        49601
#        63175
#        69026
#        81927
#        93707
#        102112
#        115416
#        130659
#        143725
#        158898
#        170752
#        181203
#        194702
#        206795
#        213473
#        217312
#        224830
#        229593
#        238889
#        245150
#
# Disc length: 3436 seconds
#
# Revision: 8
# Processed by: cddbd v1.5.2PL0 Copyright (c) Steve Scherf et al.
# Submitted via: ExactAudioCopy v1.0b3
#
DISCID=830d6a19
DTITLE=ATLUS - ペルソナ4 オリジナル・サウンドトラック [Disc 1]
DYEAR=2008
DGENRE=Soundtrack
TTITLE0=平田志穂子 - Pursuing My True Self
TTITLE1=目黒将司 - 記憶の片隅
TTITLE2=目黒将司 - Welcome to the limousine
TTITLE3=目黒将司 - 全ての人の魂の詩
TTITLE4=目黒将司 - New Days
TTITLE5=平田志穂子 - Signs Of Love
TTITLE6=目黒将司 - マヨナカテレビ
TTITLE7=目黒将司 - Your Affection
TTITLE8=目黒将司 - Like a dream come true
TTITLE9=目黒将司 - そこにいるのは誰?
TTITLE10=平田志穂子 - Reach Out To The Truth -First Battle-
TTITLE11=目黒将司 - SMILE
TTITLE12=平田志穂子 - Backside Of The TV
TTITLE13=目黒将司 - 推理
TTITLE14=目黒将司 - Castle
TTITLE15=目黒将司 - 狂気の境界線
TTITLE16=目黒将司 - I'll Face Myself -Battle-
TTITLE17=目黒将司 - I'll Face Myself
TTITLE18=喜多條敦志 - muscle blues
TTITLE19=喜多條敦志 - It's SHOW TIME!
TTITLE20=珠梨 - 人の夫
TTITLE21=喜多條敦志 - ケロリンMAGIC!
TTITLE22=目黒将司 - Sauna
TTITLE23=目黒将司 - 覚醒
TTITLE24=平田志穂子 - Reach Out To The Truth
EXTD=YEAR: 2008
EXTT0=
EXTT1=
EXTT2=
EXTT3=
EXTT4=
EXTT5=
EXTT6=
EXTT7=
EXTT8=
EXTT9=
EXTT10=
EXTT11=
EXTT12=
EXTT13=
EXTT14=
EXTT15=
EXTT16=
EXTT17=
EXTT18=
EXTT19=
EXTT20=
EXTT21=
EXTT22=
EXTT23=
EXTT24=
PLAYORDER=
